<svg width="168" height="73" fill="none" xmlns="http://www.w3.org/2000/svg"><path fill-rule="evenodd" clip-rule="evenodd" d="M12.339 31.586l.055.909-.918-.112c-3.342-.426-6.261-1.872-8.74-4.3l-1.212-1.205-.312.89C.55 29.75.973 31.846 2.35 33.255c.735.778.57.89-.697.426-.441-.148-.827-.26-.863-.204-.129.13.312 1.817.66 2.484.478.927 1.451 1.835 2.516 2.373l.9.426-1.065.019c-1.028 0-1.065.018-.955.407.367 1.205 1.818 2.484 3.434 3.04l1.138.39-.992.593a10.338 10.338 0 01-4.92 1.372c-.827.018-1.506.092-1.506.148 0 .185 2.24 1.223 3.544 1.631 3.91 1.205 8.556.686 12.045-1.371 2.479-1.465 4.957-4.375 6.114-7.193.624-1.501 1.249-4.245 1.249-5.56 0-.854.055-.965 1.083-1.984.606-.593 1.175-1.242 1.285-1.428.184-.352.165-.352-.77-.037-1.562.556-1.782.482-1.01-.352.568-.593 1.248-1.668 1.248-1.983 0-.056-.276.037-.588.203-.33.186-1.065.464-1.616.63l-.991.316-.9-.612c-.495-.334-1.193-.704-1.56-.816-.937-.259-2.37-.222-3.214.075-2.295.834-3.745 2.984-3.58 5.338zM50.59 46.912s.676-.074 1.022-.44c.318-.334.307-.966.307-.966s-.042-2.95 1.353-3.386c1.376-.429 3.142 2.853 5.017 4.115 1.416.955 2.49.746 2.49.746l5.01-.069s2.619-.158 1.377-2.18c-.103-.166-.725-1.496-3.723-4.23-3.142-2.86-2.72-2.397 1.062-7.346 2.303-3.014 3.224-4.854 2.936-5.641-.273-.753-1.968-.553-1.968-.553l-5.638.035s-.418-.056-.728.125c-.303.179-.5.595-.5.595s-.89 2.331-2.08 4.315c-2.512 4.184-3.515 4.406-3.926 4.146-.956-.606-.717-2.434-.717-3.732 0-4.056.627-5.747-1.22-6.184-.612-.146-1.064-.241-2.632-.258-2.012-.02-3.714.008-4.679.47-.642.308-1.137.996-.834 1.036.372.048 1.216.223 1.663.82.578.773.558 2.505.558 2.505s.332 4.774-.776 5.367c-.76.407-1.8-.423-4.04-4.22-1.147-1.945-2.012-4.094-2.012-4.094s-.167-.402-.466-.618c-.362-.26-.866-.342-.866-.342l-5.357.034s-.806.022-1.101.366c-.262.304-.02.936-.02.936s4.195 9.634 8.945 14.49c4.356 4.45 9.3 4.158 9.3 4.158h2.242zM78.516 46V35.499h2.898l.385-3.619h-3.283l.005-1.811c0-.944.09-1.45 1.445-1.45h1.812V25h-2.9c-3.482 0-4.707 1.756-4.707 4.708v2.172H72v3.62h2.17V46h4.346zM87 43a3 3 0 116 0 3 3 0 01-6 0zm21 3h-4c0-9.374-7.626-17-17-17v-4c11.58 0 21 9.42 21 21z" fill="#fff"/><path fill-rule="evenodd" clip-rule="evenodd" d="M101 46h-4c0-5.514-4.486-10-10-10v-4c7.72 0 14 6.28 14 14z" fill="#fff"/><path fill-rule="evenodd" clip-rule="evenodd" d="M114 43a3 3 0 116 0 3 3 0 01-6 0zm21 3h-4c0-9.374-7.626-17-17-17v-4c11.579 0 21 9.42 21 21z" fill="#FA8A4B"/><path fill-rule="evenodd" clip-rule="evenodd" d="M128 46h-4c0-5.514-4.486-10-10-10v-4c7.72 0 14 6.28 14 14z" fill="#FA8A4B"/><path fill-rule="evenodd" clip-rule="evenodd" d="M12.339 5.586l.055.909-.918-.112c-3.342-.426-6.261-1.872-8.74-4.3L1.524.878l-.312.89C.55 3.75.973 5.846 2.35 7.255c.735.778.57.89-.697.426-.441-.148-.827-.26-.863-.204-.129.13.312 1.817.66 2.484.478.927 1.451 1.835 2.516 2.373l.9.426-1.065.019c-1.028 0-1.065.018-.955.408.367 1.204 1.818 2.483 3.434 3.04l1.138.389-.992.593a10.338 10.338 0 01-4.92 1.372c-.827.018-1.506.092-1.506.148 0 .185 2.24 1.223 3.544 1.631 3.91 1.205 8.556.686 12.045-1.372 2.479-1.464 4.957-4.374 6.114-7.192.624-1.501 1.249-4.245 1.249-5.56 0-.854.055-.965 1.083-1.984.606-.594 1.175-1.242 1.285-1.428.184-.352.165-.352-.77-.037-1.562.556-1.782.482-1.01-.352.568-.593 1.248-1.668 1.248-1.983 0-.056-.276.037-.588.204-.33.185-1.065.463-1.616.63l-.991.315-.9-.612C20.198.656 19.5.285 19.133.174c-.937-.26-2.37-.223-3.214.074-2.295.834-3.745 2.984-3.58 5.338z" fill="#333"/><path fill-rule="evenodd" clip-rule="evenodd" d="M98.339 5.586l.055.909-.918-.112c-3.342-.426-6.261-1.872-8.74-4.3L87.524.878l-.312.89c-.661 1.983-.239 4.078 1.138 5.487.735.778.57.89-.697.426-.441-.148-.827-.26-.864-.204-.128.13.313 1.817.662 2.484.477.927 1.45 1.835 2.515 2.373l.9.426-1.065.019c-1.028 0-1.065.018-.955.408.367 1.204 1.818 2.483 3.434 3.04l1.138.389-.992.593a10.338 10.338 0 01-4.92 1.372c-.827.018-1.506.092-1.506.148 0 .185 2.24 1.223 3.544 1.631 3.91 1.205 8.556.686 12.045-1.372 2.479-1.464 4.957-4.374 6.114-7.192.624-1.501 1.249-4.245 1.249-5.56 0-.854.055-.965 1.083-1.984.606-.594 1.175-1.242 1.285-1.428.184-.352.166-.352-.771-.037-1.561.556-1.781.482-1.01-.352.569-.593 1.249-1.668 1.249-1.983 0-.056-.276.037-.588.204-.33.185-1.065.463-1.616.63l-.991.315-.9-.612c-.496-.333-1.193-.704-1.56-.815-.937-.26-2.369-.223-3.214.074-2.295.834-3.745 2.984-3.58 5.338z" fill="#FA8A4B"/><path fill-rule="evenodd" clip-rule="evenodd" d="M50.59 20.912s.676-.074 1.022-.44c.318-.334.307-.966.307-.966s-.042-2.95 1.353-3.386c1.376-.429 3.142 2.853 5.017 4.115 1.416.954 2.49.746 2.49.746l5.01-.069s2.619-.158 1.377-2.18c-.103-.166-.725-1.496-3.723-4.23-3.142-2.86-2.72-2.397 1.062-7.346 2.303-3.014 3.224-4.854 2.936-5.641-.273-.753-1.968-.553-1.968-.553l-5.638.035s-.418-.056-.728.126c-.303.178-.5.594-.5.594s-.89 2.331-2.08 4.315c-2.512 4.184-3.515 4.406-3.926 4.146-.956-.606-.717-2.434-.717-3.732 0-4.056.627-5.747-1.22-6.184C50.052.116 49.6.021 48.032.005c-2.012-.02-3.714.007-4.679.47-.642.307-1.137.995-.834 1.035.372.048 1.216.223 1.663.82.578.773.558 2.505.558 2.505s.332 4.774-.776 5.367c-.76.407-1.8-.423-4.04-4.22-1.147-1.945-2.012-4.094-2.012-4.094s-.167-.402-.466-.618c-.362-.26-.866-.342-.866-.342l-5.357.034s-.806.022-1.101.366c-.262.304-.02.936-.02.936s4.195 9.634 8.945 14.49c4.356 4.45 9.3 4.158 9.3 4.158h2.242z" fill="#333"/><path fill-rule="evenodd" clip-rule="evenodd" d="M136.589 20.912s.677-.074 1.023-.44c.318-.334.307-.966.307-.966s-.042-2.95 1.353-3.386c1.376-.429 3.142 2.853 5.017 4.115 1.416.954 2.49.746 2.49.746l5.009-.069s2.62-.158 1.378-2.18c-.103-.166-.725-1.496-3.723-4.23-3.142-2.86-2.72-2.397 1.062-7.346 2.303-3.014 3.224-4.854 2.936-5.641-.273-.753-1.968-.553-1.968-.553l-5.638.035s-.418-.056-.728.126c-.303.178-.499.594-.499.594s-.892 2.331-2.082 4.315c-2.511 4.184-3.514 4.406-3.925 4.146-.955-.606-.717-2.434-.717-3.732 0-4.056.627-5.747-1.22-6.184-.612-.146-1.064-.241-2.632-.257-2.012-.02-3.714.007-4.679.47-.642.307-1.137.995-.834 1.035.372.048 1.216.223 1.663.82.578.773.558 2.505.558 2.505s.332 4.774-.776 5.367c-.759.407-1.801-.423-4.04-4.22-1.147-1.945-2.012-4.094-2.012-4.094s-.167-.402-.466-.618c-.362-.26-.866-.342-.866-.342l-5.357.034s-.806.022-1.101.366c-.262.304-.02.936-.02.936s4.195 9.634 8.945 14.49c4.356 4.45 9.301 4.158 9.301 4.158h2.241z" fill="#FA8A4B"/><path fill-rule="evenodd" clip-rule="evenodd" d="M78.516 21V10.499h2.898L81.8 6.88h-3.283l.005-1.811c0-.944.09-1.45 1.445-1.45h1.812V0h-2.9c-3.482 0-4.707 1.756-4.707 4.708V6.88H72v3.62h2.17V21h4.346z" fill="#333"/><path fill-rule="evenodd" clip-rule="evenodd" d="M164.516 21V10.499h2.898l.385-3.619h-3.283l.005-1.811c0-.944.089-1.45 1.445-1.45h1.812V0h-2.899c-3.483 0-4.708 1.756-4.708 4.708V6.88H158v3.62h2.171V21h4.345zM35.435 53.826a7.609 7.609 0 105.287 13.08.94.94 0 01.184-.184 7.609 7.609 0 00-5.471-12.896zM42.72 67.43a9.396 9.396 0 002.149-5.994 9.435 9.435 0 10-9.435 9.435 9.396 9.396 0 005.994-2.15l4.012 4.013a.913.913 0 001.292-1.292L42.72 67.43z" fill="#FA8A4B"/><path fill-rule="evenodd" clip-rule="evenodd" d="M9.435 53.826a7.609 7.609 0 105.287 13.08.94.94 0 01.184-.184 7.609 7.609 0 00-5.471-12.896zM16.72 67.43a9.396 9.396 0 002.149-5.994 9.435 9.435 0 10-9.435 9.435 9.396 9.396 0 005.994-2.15l4.012 4.013a.913.913 0 001.292-1.292L16.72 67.43zm35.547-15.163a.913.913 0 011.292 0L62.5 61.21l8.941-8.942a.913.913 0 011.292 1.292L63.79 62.5l8.942 8.941a.913.913 0 01-1.292 1.292L62.5 63.79l-8.941 8.942a.913.913 0 01-1.292-1.292l8.943-8.94-8.942-8.941a.913.913 0 010-1.292z" fill="#333"/><path d="M93 64.086h-5.93v5.93h-3.11v-5.93H78V60.96h5.96V55h3.11v5.96H93v3.126z" fill="#6B6"/><path d="M113 64H98v-2h15v2z" fill="#FF6C6C"/></svg>