<svg width="168" height="73" viewBox="0 0 168 73" fill="none" xmlns="http://www.w3.org/2000/svg">
<path fill-rule="evenodd" clip-rule="evenodd" d="M12.3388 31.5863L12.3939 32.4946L11.4758 32.3834C8.13407 31.9571 5.21462 30.5112 2.73584 28.0829L1.52399 26.878L1.21185 27.7677C0.55084 29.7512 0.973151 31.8458 2.35025 33.2547C3.0847 34.0332 2.91945 34.1444 1.65252 33.681C1.21185 33.5327 0.82626 33.4215 0.789537 33.4771C0.661008 33.6069 1.10168 35.2937 1.45055 35.961C1.92794 36.8879 2.90109 37.7962 3.96605 38.3338L4.86575 38.7601L3.8008 38.7787C2.77256 38.7787 2.73584 38.7972 2.84601 39.1865C3.21323 40.3914 4.66378 41.6704 6.27958 42.2265L7.41798 42.6158L6.42647 43.209C4.95756 44.0617 3.23159 44.5436 1.50563 44.5807C0.679369 44.5992 0 44.6734 0 44.729C0 44.9144 2.24008 45.9524 3.54374 46.3603C7.4547 47.5652 12.1001 47.0461 15.5888 44.9885C18.0676 43.5241 20.5463 40.6138 21.7031 37.7962C22.3274 36.2947 22.9517 33.5512 22.9517 32.2351C22.9517 31.3824 23.0068 31.2712 24.035 30.2517C24.6409 29.6585 25.2101 29.0097 25.3203 28.8243C25.5039 28.4721 25.4855 28.4721 24.5491 28.7873C22.9884 29.3434 22.7681 29.2692 23.5392 28.4351C24.1084 27.8419 24.7878 26.7667 24.7878 26.4516C24.7878 26.396 24.5124 26.4887 24.2002 26.6555C23.8697 26.8409 23.1353 27.1189 22.5844 27.2858L21.5929 27.6009L20.6932 26.9892C20.1975 26.6555 19.4997 26.2848 19.1325 26.1735C18.1961 25.914 16.7639 25.9511 15.9193 26.2477C13.6241 27.0819 12.1736 29.2321 12.3388 31.5863Z" fill="white"/>
<path fill-rule="evenodd" clip-rule="evenodd" d="M50.5891 46.9122C50.5891 46.9122 51.2658 46.8384 51.6125 46.4729C51.9298 46.1381 51.9188 45.5061 51.9188 45.5061C51.9188 45.5061 51.8766 42.5553 53.2724 42.1196C54.648 41.6911 56.4142 44.9732 58.2887 46.2353C59.7047 47.1895 60.7795 46.9806 60.7795 46.9806L65.7885 46.9122C65.7885 46.9122 68.4076 46.7538 67.1659 44.732C67.0632 44.5663 66.4414 43.2359 63.4426 40.5029C60.3008 37.6421 60.7226 38.1048 64.5046 33.1556C66.8082 30.1418 67.729 28.3018 67.441 27.515C67.1677 26.7625 65.473 26.9623 65.473 26.9623L59.8349 26.9965C59.8349 26.9965 59.4167 26.9407 59.1067 27.1225C58.8041 27.3008 58.6079 27.7167 58.6079 27.7167C58.6079 27.7167 57.7165 30.0481 56.5261 32.0322C54.0152 36.2162 53.0119 36.4377 52.6011 36.1784C51.6455 35.5717 51.8839 33.7443 51.8839 32.4462C51.8839 28.39 52.5112 26.6994 50.6643 26.262C50.0517 26.1161 49.6005 26.0207 48.0323 26.0045C46.0202 25.9847 44.3182 26.0117 43.3534 26.4744C42.7115 26.7823 42.2163 27.47 42.5189 27.5096C42.8912 27.5582 43.7349 27.7329 44.1825 28.3306C44.7602 29.1029 44.74 30.8349 44.74 30.8349C44.74 30.8349 45.072 35.6095 43.9642 36.2018C43.2049 36.6087 42.1631 35.7787 39.9236 31.9817C38.7773 30.0373 37.9116 27.8877 37.9116 27.8877C37.9116 27.8877 37.7447 27.4862 37.4457 27.2702C37.0844 27.0091 36.58 26.9281 36.58 26.9281L31.2225 26.9623C31.2225 26.9623 30.4173 26.9839 30.122 27.3278C29.8598 27.632 30.1019 28.264 30.1019 28.264C30.1019 28.264 34.2965 37.8978 39.0469 42.7534C43.4029 47.2039 48.3478 46.9122 48.3478 46.9122H50.5891Z" fill="white"/>
<path fill-rule="evenodd" clip-rule="evenodd" d="M78.5156 46V35.4988H81.4144L81.7986 31.88H78.5156L78.5206 30.0688C78.5206 29.1249 78.6102 28.6192 79.9658 28.6192H81.7781V25H78.8788C75.3964 25 74.1707 26.7555 74.1707 29.7077V31.8804H72V35.4992H74.1707V46H78.5156Z" fill="white"/>
<path fill-rule="evenodd" clip-rule="evenodd" d="M87.0002 43C87.0002 41.3432 88.3434 40 90.0002 40C91.6569 40 93.0001 41.3432 93.0001 43C93.0001 44.6567 91.6569 46 90.0002 46C88.3434 46 87.0002 44.6567 87.0002 43Z" fill="white"/>
<path fill-rule="evenodd" clip-rule="evenodd" d="M108 46H104C104 36.6257 96.3744 28.9997 87.0002 28.9997V25C98.5794 25 108 34.4207 108 46Z" fill="white"/>
<path fill-rule="evenodd" clip-rule="evenodd" d="M101 46H97.0004C97.0004 40.486 92.5139 36.0003 87 36.0003V31.9998C94.7197 31.9998 101 38.2803 101 46Z" fill="white"/>
<path fill-rule="evenodd" clip-rule="evenodd" d="M114 43C114 41.3432 115.343 40 117 40C118.657 40 120 41.3432 120 43C120 44.6567 118.657 46 117 46C115.343 46 114 44.6567 114 43Z" fill="#FA8A4B"/>
<path fill-rule="evenodd" clip-rule="evenodd" d="M135 46H131C131 36.6257 123.374 28.9997 114 28.9997V25C125.579 25 135 34.4207 135 46Z" fill="#FA8A4B"/>
<path fill-rule="evenodd" clip-rule="evenodd" d="M128 46H124C124 40.486 119.514 36.0003 114 36.0003V31.9998C121.72 31.9998 128 38.2803 128 46Z" fill="#FA8A4B"/>
<path fill-rule="evenodd" clip-rule="evenodd" d="M12.3388 5.58633L12.3939 6.49464L11.4758 6.38342C8.13407 5.95707 5.21462 4.51119 2.73584 2.08285L1.52399 0.87795L1.21185 1.76772C0.55084 3.75117 0.973151 5.84585 2.35025 7.25465C3.0847 8.0332 2.91945 8.14442 1.65252 7.681C1.21185 7.53271 0.82626 7.42148 0.789537 7.47709C0.661008 7.60685 1.10168 9.29371 1.45055 9.96104C1.92794 10.8879 2.90109 11.7962 3.96605 12.3338L4.86575 12.7601L3.8008 12.7787C2.77256 12.7787 2.73584 12.7972 2.84601 13.1865C3.21323 14.3914 4.66378 15.6704 6.27958 16.2265L7.41798 16.6158L6.42647 17.209C4.95756 18.0617 3.23159 18.5436 1.50563 18.5807C0.679369 18.5992 0 18.6734 0 18.729C0 18.9144 2.24008 19.9524 3.54374 20.3603C7.4547 21.5652 12.1001 21.0461 15.5888 18.9885C18.0676 17.5241 20.5463 14.6138 21.7031 11.7962C22.3274 10.2947 22.9517 7.55124 22.9517 6.23512C22.9517 5.38242 23.0068 5.2712 24.035 4.25167C24.6409 3.65849 25.2101 3.0097 25.3203 2.82433C25.5039 2.47213 25.4855 2.47213 24.5491 2.78725C22.9884 3.34336 22.7681 3.26921 23.5392 2.43505C24.1084 1.84187 24.7878 0.766729 24.7878 0.451601C24.7878 0.39599 24.5124 0.488675 24.2002 0.655507C23.8697 0.840877 23.1353 1.11893 22.5844 1.28576L21.5929 1.60089L20.6932 0.989172C20.1975 0.655507 19.4997 0.284769 19.1325 0.173547C18.1961 -0.0859696 16.7639 -0.0488958 15.9193 0.247695C13.6241 1.08186 12.1736 3.23214 12.3388 5.58633Z" fill="#333333"/>
<path fill-rule="evenodd" clip-rule="evenodd" d="M98.3388 5.58633L98.3939 6.49464L97.4758 6.38342C94.1341 5.95707 91.2146 4.51119 88.7358 2.08285L87.524 0.87795L87.2118 1.76772C86.5508 3.75117 86.9732 5.84585 88.3503 7.25465C89.0847 8.0332 88.9195 8.14442 87.6525 7.681C87.2118 7.53271 86.8263 7.42148 86.7895 7.47709C86.661 7.60685 87.1017 9.29371 87.4505 9.96104C87.9279 10.8879 88.9011 11.7962 89.966 12.3338L90.8658 12.7601L89.8008 12.7787C88.7726 12.7787 88.7358 12.7972 88.846 13.1865C89.2132 14.3914 90.6638 15.6704 92.2796 16.2265L93.418 16.6158L92.4265 17.209C90.9576 18.0617 89.2316 18.5436 87.5056 18.5807C86.6794 18.5992 86 18.6734 86 18.729C86 18.9144 88.2401 19.9524 89.5437 20.3603C93.4547 21.5652 98.1001 21.0461 101.589 18.9885C104.068 17.5241 106.546 14.6138 107.703 11.7962C108.327 10.2947 108.952 7.55124 108.952 6.23512C108.952 5.38242 109.007 5.2712 110.035 4.25167C110.641 3.65849 111.21 3.0097 111.32 2.82433C111.504 2.47213 111.486 2.47213 110.549 2.78725C108.988 3.34336 108.768 3.26921 109.539 2.43505C110.108 1.84187 110.788 0.766729 110.788 0.451601C110.788 0.39599 110.512 0.488675 110.2 0.655507C109.87 0.840877 109.135 1.11893 108.584 1.28576L107.593 1.60089L106.693 0.989172C106.197 0.655507 105.5 0.284769 105.133 0.173547C104.196 -0.0859696 102.764 -0.0488958 101.919 0.247695C99.6241 1.08186 98.1736 3.23214 98.3388 5.58633Z" fill="#FA8A4B"/>
<path fill-rule="evenodd" clip-rule="evenodd" d="M50.5891 20.9122C50.5891 20.9122 51.2658 20.8384 51.6125 20.4729C51.9298 20.1381 51.9188 19.5061 51.9188 19.5061C51.9188 19.5061 51.8766 16.5553 53.2724 16.1196C54.648 15.6911 56.4142 18.9732 58.2887 20.2353C59.7047 21.1895 60.7795 20.9806 60.7795 20.9806L65.7885 20.9122C65.7885 20.9122 68.4076 20.7538 67.1659 18.732C67.0632 18.5663 66.4414 17.2359 63.4426 14.5029C60.3008 11.6421 60.7226 12.1048 64.5046 7.15558C66.8082 4.14176 67.729 2.30178 67.441 1.51502C67.1677 0.762461 65.473 0.962303 65.473 0.962303L59.8349 0.99651C59.8349 0.99651 59.4167 0.940698 59.1067 1.12254C58.8041 1.30077 58.6079 1.71666 58.6079 1.71666C58.6079 1.71666 57.7165 4.04814 56.5261 6.03215C54.0152 10.2162 53.0119 10.4377 52.6011 10.1784C51.6455 9.57168 51.8839 7.7443 51.8839 6.44624C51.8839 2.39 52.5112 0.699448 50.6643 0.261958C50.0517 0.116128 49.6005 0.0207079 48.0323 0.00450459C46.0202 -0.0152995 44.3182 0.0117061 43.3534 0.474402C42.7115 0.782265 42.2163 1.47001 42.5189 1.50962C42.8912 1.55823 43.7349 1.73286 44.1825 2.33059C44.7602 3.10295 44.74 4.8349 44.74 4.8349C44.74 4.8349 45.072 9.60949 43.9642 10.2018C43.2049 10.6087 42.1631 9.77872 39.9236 5.98174C38.7773 4.03734 37.9116 1.88769 37.9116 1.88769C37.9116 1.88769 37.7447 1.48621 37.4457 1.27017C37.0844 1.00911 36.58 0.928096 36.58 0.928096L31.2225 0.962303C31.2225 0.962303 30.4173 0.983907 30.122 1.32778C29.8598 1.63204 30.1019 2.26397 30.1019 2.26397C30.1019 2.26397 34.2965 11.8978 39.0469 16.7534C43.4029 21.2039 48.3478 20.9122 48.3478 20.9122H50.5891Z" fill="#333333"/>
<path fill-rule="evenodd" clip-rule="evenodd" d="M136.589 20.9122C136.589 20.9122 137.266 20.8384 137.612 20.4729C137.93 20.1381 137.919 19.5061 137.919 19.5061C137.919 19.5061 137.877 16.5553 139.272 16.1196C140.648 15.6911 142.414 18.9732 144.289 20.2353C145.705 21.1895 146.779 20.9806 146.779 20.9806L151.788 20.9122C151.788 20.9122 154.408 20.7538 153.166 18.732C153.063 18.5663 152.441 17.2359 149.443 14.5029C146.301 11.6421 146.723 12.1048 150.505 7.15558C152.808 4.14176 153.729 2.30178 153.441 1.51502C153.168 0.762461 151.473 0.962303 151.473 0.962303L145.835 0.99651C145.835 0.99651 145.417 0.940698 145.107 1.12254C144.804 1.30077 144.608 1.71666 144.608 1.71666C144.608 1.71666 143.716 4.04814 142.526 6.03215C140.015 10.2162 139.012 10.4377 138.601 10.1784C137.646 9.57168 137.884 7.7443 137.884 6.44624C137.884 2.39 138.511 0.699448 136.664 0.261958C136.052 0.116128 135.6 0.0207079 134.032 0.00450459C132.02 -0.0152995 130.318 0.0117061 129.353 0.474402C128.711 0.782265 128.216 1.47001 128.519 1.50962C128.891 1.55823 129.735 1.73286 130.182 2.33059C130.76 3.10295 130.74 4.8349 130.74 4.8349C130.74 4.8349 131.072 9.60949 129.964 10.2018C129.205 10.6087 128.163 9.77872 125.924 5.98174C124.777 4.03734 123.912 1.88769 123.912 1.88769C123.912 1.88769 123.745 1.48621 123.446 1.27017C123.084 1.00911 122.58 0.928096 122.58 0.928096L117.223 0.962303C117.223 0.962303 116.417 0.983907 116.122 1.32778C115.86 1.63204 116.102 2.26397 116.102 2.26397C116.102 2.26397 120.297 11.8978 125.047 16.7534C129.403 21.2039 134.348 20.9122 134.348 20.9122H136.589Z" fill="#FA8A4B"/>
<path fill-rule="evenodd" clip-rule="evenodd" d="M78.5156 21V10.4988H81.4144L81.7986 6.87999H78.5156L78.5206 5.06875C78.5206 4.12492 78.6102 3.61919 79.9658 3.61919H81.7781V0H78.8788C75.3964 0 74.1707 1.7555 74.1707 4.7077V6.8804H72V10.4992H74.1707V21H78.5156Z" fill="#333333"/>
<path fill-rule="evenodd" clip-rule="evenodd" d="M164.516 21V10.4988H167.414L167.799 6.87999H164.516L164.521 5.06875C164.521 4.12492 164.61 3.61919 165.966 3.61919H167.778V0H164.879C161.396 0 160.171 1.7555 160.171 4.7077V6.8804H158V10.4992H160.171V21H164.516Z" fill="#FA8A4B"/>
<path fill-rule="evenodd" clip-rule="evenodd" d="M35.4348 53.8261C31.2326 53.8261 27.8261 57.2326 27.8261 61.4348C27.8261 65.6369 31.2326 69.0435 35.4348 69.0435C37.489 69.0435 39.3531 68.2294 40.7221 66.9062C40.7479 66.8719 40.7764 66.8389 40.8076 66.8076C40.8389 66.7764 40.8719 66.7479 40.9062 66.7221C42.2294 65.3531 43.0435 63.489 43.0435 61.4348C43.0435 57.2326 39.6369 53.8261 35.4348 53.8261ZM42.7207 67.4294C44.0633 65.7995 44.8696 63.7113 44.8696 61.4348C44.8696 56.2241 40.6455 52 35.4348 52C30.2241 52 26 56.2241 26 61.4348C26 66.6455 30.2241 70.8696 35.4348 70.8696C37.7113 70.8696 39.7995 70.0633 41.4294 68.7207L45.4413 72.7326C45.7979 73.0891 46.376 73.0891 46.7326 72.7326C47.0891 72.376 47.0891 71.7979 46.7326 71.4413L42.7207 67.4294Z" fill="#FA8A4B"/>
<path fill-rule="evenodd" clip-rule="evenodd" d="M9.43478 53.8261C5.23262 53.8261 1.82609 57.2326 1.82609 61.4348C1.82609 65.6369 5.23262 69.0435 9.43478 69.0435C11.489 69.0435 13.3531 68.2294 14.7221 66.9062C14.7479 66.8719 14.7764 66.8389 14.8076 66.8076C14.8389 66.7764 14.8719 66.7479 14.9062 66.7221C16.2294 65.3531 17.0435 63.489 17.0435 61.4348C17.0435 57.2326 13.6369 53.8261 9.43478 53.8261ZM16.7207 67.4294C18.0633 65.7995 18.8696 63.7113 18.8696 61.4348C18.8696 56.2241 14.6455 52 9.43478 52C4.2241 52 0 56.2241 0 61.4348C0 66.6455 4.2241 70.8696 9.43478 70.8696C11.7113 70.8696 13.7995 70.0633 15.4294 68.7207L19.4413 72.7326C19.7979 73.0891 20.376 73.0891 20.7326 72.7326C21.0891 72.376 21.0891 71.7979 20.7326 71.4413L16.7207 67.4294Z" fill="#333333"/>
<path fill-rule="evenodd" clip-rule="evenodd" d="M52.2674 52.2674C52.624 51.9109 53.2021 51.9109 53.5587 52.2674L62.5 61.2088L71.4413 52.2674C71.7979 51.9109 72.376 51.9109 72.7326 52.2674C73.0891 52.624 73.0891 53.2021 72.7326 53.5587L63.7912 62.5L72.7326 71.4413C73.0891 71.7979 73.0891 72.376 72.7326 72.7326C72.376 73.0891 71.7979 73.0891 71.4413 72.7326L62.5 63.7912L53.5587 72.7326C53.2021 73.0891 52.624 73.0891 52.2674 72.7326C51.9109 72.376 51.9109 71.7979 52.2674 71.4413L61.2088 62.5L52.2674 53.5587C51.9109 53.2021 51.9109 52.624 52.2674 52.2674Z" fill="#333333"/>
<path d="M93 64.0862H87.0708V70.0154H83.96V64.0862H78V60.96H83.96V55H87.0708V60.96H93V64.0862Z" fill="#66BB66"/>
<path d="M113 64H98V62H113V64Z" fill="#FF6C6C"/>
</svg>
